<svg width="94" height="32" viewBox="0 0 94 32" fill="none" xmlns="http://www.w3.org/2000/svg">
<path d="M51.517 15.6053L62.0702 31.3843H52.2646L46.3724 22.0661L40.4363 31.3843H30.851L41.4035 15.7373L31.2908 0.617383H41.0957L46.5044 9.27576L52.0443 0.617383H61.6304L51.517 15.6053ZM16.5343 0C7.03576 0 0 7.03292 0 16V16.0885C0 25.407 7.12342 32 16.7096 32C22.3382 32 26.8236 29.9344 30.0781 27.2089V13.4068H18.9943L14.706 19.6484H21.9867V23.3852C20.7558 24.2204 19.1724 24.6595 17.0621 24.6595C12.1804 24.6595 8.70681 21.0988 8.70681 16.0885V16C8.70681 11.2974 12.1366 7.60431 16.5781 7.60431C18.7204 7.60431 20.4151 8.11653 21.9888 9.04972L26.4536 2.55601C23.7526 0.913836 20.588 0 16.5343 0ZM93.1765 15.9123V16C93.1765 24.8348 86.2098 32 76.9198 32C67.6315 32 60.7506 24.9225 60.7506 16.0877V16C60.7506 7.16519 67.7173 1.22423e-06 77.0073 1.22423e-06C86.2956 8.37634e-07 93.1765 7.07751 93.1765 15.9123ZM84.6183 16C84.6183 11.5173 81.5228 7.6931 76.9198 7.6931C72.3185 7.6931 69.265 11.4725 69.265 15.9123V16C69.265 20.4398 72.4043 24.3069 77.0073 24.3069C81.5648 24.3069 84.6183 20.5275 84.6183 16.0877V16Z" fill="#FF3A00"/>
</svg>
