<?xml version="1.0" encoding="utf-8"?>
<!-- Generator: Adobe Illustrator 19.2.0, SVG Export Plug-In . SVG Version: 6.00 Build 0)  -->
<svg version="1.1" id="Layer_1" xmlns="http://www.w3.org/2000/svg" xmlns:xlink="http://www.w3.org/1999/xlink" x="0px" y="0px"
	 viewBox="0 0 90 90" enable-background="new 0 0 90 90" xml:space="preserve">
<g>
	<circle fill="#549AD4" cx="45" cy="45" r="45"/>
	<g>
		<g>
			<path fill="#FFFFFF" d="M12.998,45.186c-1.2,0.001-1.391-1.708-0.793-2.155c0.389-0.341,1.574-0.308,1.908-0.353
				c0.335-0.022,1.228-0.33,1.339-0.575c0.468-0.958,0.467-1.831,0.467-2.879c0-1.404-0.725-3.499-2.173-6.286
				c-1.427-2.764-2.14-4.97-2.14-6.62c0-1.359,0.267-2.575,0.802-3.645c0.602-1.226,1.46-2.106,2.575-2.641
				c0.557-0.245,1.058-0.368,1.505-0.368c0.936,0,1.638,0.257,2.106,0.769c0.223,0.223,0.334,0.468,0.334,0.736
				c0,0.446-0.323,0.836-0.969,1.17c-0.089,0.045-0.19,0.067-0.301,0.067c-0.134,0-0.223-0.011-0.268-0.034
				c-0.246-0.089-0.413-0.134-0.502-0.134c-0.134,0-0.268,0.067-0.401,0.201c-1.204,1.204-1.806,2.675-1.806,4.413
				c0,0.647,0.1,1.249,0.301,1.806c0.044,0.112,0.278,0.602,0.702,1.471c0.423,0.869,1.036,2.106,1.839,3.711
				c1.07,2.14,1.605,3.957,1.605,5.45c0,1.226-0.301,2.407-0.903,3.544c-0.201,0.379-0.702,0.869-1.505,1.471
				C16.075,44.775,13.831,45.214,12.998,45.186z"/>
			<path fill="#FFFFFF" d="M30.33,45.878c-0.936-0.201-1.862-0.585-2.775-1.154c-0.914-0.568-1.75-1.209-2.508-1.922
				c-0.758-0.714-1.404-1.443-1.939-2.19c-0.535-0.746-0.892-1.399-1.07-1.956c-0.357-1.092-0.58-2.168-0.669-3.227
				c-0.089-1.058-0.134-1.956-0.134-2.692c0-1.872,0.284-3.477,0.852-4.815c0.568-1.337,1.209-2.396,1.923-3.176
				c1.092-1.204,2.106-2.084,3.043-2.641c0.936-0.557,1.761-0.836,2.474-0.836c0.624,0,1.133-0.066,1.646,0.313
				c0.36,0.39,0.293,0.59,0.293,0.991c0,0.313-0.078,0.597-0.234,0.853c-0.156,0.257-0.435,0.429-0.836,0.518
				c-0.513,0.089-1.031,0.212-1.555,0.368c-0.524,0.156-1.142,0.546-1.856,1.17c-0.379,0.334-0.752,0.747-1.12,1.237
				c-0.368,0.491-0.697,1.07-0.986,1.739c-0.29,0.669-0.524,1.433-0.702,2.29c-0.179,0.858-0.267,1.811-0.267,2.859
				c0,1.917,0.624,3.901,1.872,5.952c0.379,0.468,0.736,0.886,1.07,1.254c0.335,0.368,0.624,0.674,0.869,0.919
				c0.245,0.245,0.49,0.485,0.736,0.719c0.245,0.234,0.624,0.485,1.137,0.752c0.178,0.089,0.412,0.184,0.702,0.284
				c0.289,0.1,0.523,0.184,0.702,0.251c0.356,0.201,0.535,0.479,0.535,0.836c0,0.356-0.117,0.68-0.351,0.97
				c-0.234,0.289-0.485,0.401-0.752,0.334H30.33z"/>
			<path fill="#FFFFFF" d="M35.011,34.409c-0.245,0.869-0.451,1.956-0.619,3.26c-0.167,1.304,0.075,4.264-0.318,4.564
				c-0.12,0.092-0.669,0.167-0.869,0.167c-0.201,0-0.407-0.022-0.619-0.067c-0.212-0.045-0.407-0.139-0.585-0.284
				c-0.179-0.145-0.329-0.34-0.451-0.585c-0.123-0.245-0.184-0.568-0.184-0.97c0-0.178,0.017-0.406,0.05-0.685
				c0.034-0.279,0.05-0.473,0.05-0.585c0-0.245,0.033-0.674,0.1-1.287c0.067-0.613,0.145-1.332,0.234-2.156
				c0.089-0.824,0.195-1.722,0.318-2.692c0.122-0.97,0.228-1.934,0.318-2.892c0.089-0.958,0.167-1.861,0.234-2.708
				c0.067-0.847,0.1-1.56,0.1-2.14v-0.401c0-0.267,0.122-0.423,0.368-0.468c0.245-0.045,1.42,0.005,2.023,0.552
				c0.153,0.139,0.217,0.368,0.284,0.602c0.067,0.234,0.111,0.485,0.134,0.752c0.022,0.267,0.034,0.524,0.034,0.769
				c0,0.179-0.023,0.446-0.067,0.802c-0.045,0.357-0.089,0.741-0.134,1.154c-0.045,0.413-0.089,0.825-0.134,1.237
				c-0.045,0.413-0.033,1.304-0.033,1.593c0,0.198,1.204,0.363,1.805,0.363h0.401c0.289,0,0.535-0.011,0.736-0.033
				c0.201-0.022,0.345-0.034,0.435-0.034h0.134c0.289-1.204,0.552-2.546,0.786-4.029c0.234-1.482,0.462-3.171,0.685-5.066
				c0.111-0.757,0.345-1.148,0.702-1.17h0.301c0.423,0,0.774,0.062,1.053,0.184c0.278,0.123,0.451,0.307,0.518,0.552
				c-0.022,0.535-0.084,1.276-0.184,2.223c-0.1,0.948-0.217,2.006-0.351,3.176c-0.134,1.17-0.273,2.402-0.418,3.695
				c-0.145,1.293-0.284,2.547-0.418,3.762c-0.134,1.215-0.24,2.346-0.318,3.394c-0.078,1.048-0.117,1.906-0.117,2.574
				c0,0.356,0.005,0.696,0.017,1.02c0.011,0.323,0.028,0.64,0.05,0.953c0,0.156-0.05,0.306-0.15,0.451
				c-0.1,0.145-0.229,0.217-0.385,0.217c-0.892,0-1.51-0.251-1.856-0.752c-0.346-0.502-0.518-1.232-0.518-2.19
				c0-0.134,0.005-0.312,0.017-0.535c0.011-0.223,0.022-0.462,0.034-0.719c0.011-0.256,0.022-0.496,0.033-0.719
				c0.011-0.223,0.017-0.401,0.017-0.535c0-0.178,0.017-0.457,0.05-0.836c0.033-0.379,0.072-0.78,0.117-1.204
				c0.044-0.423,0.154-1.502,0.193-1.891C38.642,34.53,35.184,34.005,35.011,34.409z"/>
			<path fill="#FFFFFF" d="M21.236,74.008c-0.669-0.29-1.079-0.688-1.079-1.133c0-0.268-0.046-1.189,1.212-1.14
				c0.335,0.013,0.557-0.156,0.669-0.401c0.468-0.958,0.702-1.961,0.702-3.009c0-1.404-0.725-3.499-2.173-6.286
				c-1.427-2.764-2.14-4.97-2.14-6.62c0-1.359,0.267-2.575,0.802-3.645c0.602-1.226,1.46-2.106,2.575-2.641
				c0.557-0.245,1.058-0.368,1.505-0.368c0.936,0,1.638,0.257,2.106,0.769c0.223,0.223,0.334,0.468,0.334,0.736
				c0,0.446-0.323,0.836-0.969,1.17c-0.089,0.045-0.19,0.067-0.301,0.067c-0.134,0-0.223-0.011-0.268-0.034
				c-0.246-0.089-0.413-0.134-0.502-0.134c-0.134,0-0.268,0.067-0.401,0.201c-1.204,1.204-1.806,2.675-1.806,4.413
				c0,0.647,0.1,1.249,0.301,1.806c0.044,0.112,0.278,0.602,0.702,1.471c0.423,0.869,1.036,2.106,1.839,3.711
				c1.07,2.14,1.605,3.957,1.605,5.45c0,1.226-0.301,2.407-0.903,3.544c-0.201,0.379-0.619,0.887-1.421,1.489
				c-0.647,0.468-1.256,0.684-1.768,0.684C21.634,74.107,21.391,74.075,21.236,74.008z"/>
			<path fill="#FFFFFF" d="M29.661,72.604c-0.112-0.714-0.195-1.477-0.251-2.29c-0.056-0.813-0.083-1.666-0.083-2.558
				c0-1.181,0.067-2.942,0.201-5.283c0.134-2.341,0.201-4.113,0.201-5.316c0-1.717-0.076-3.128-0.271-4.56
				c-0.004-0.03-0.028-0.053-0.058-0.055c-0.145-0.008-0.556-0.043-0.741-0.184c-0.215-0.163-0.145-1.883,0.122-1.883
				c0.223-0.044,0.748-0.072,0.948-0.072c0.178,0,0.39,0.011,0.635,0.033c0.245,0.022,0.512,0.056,0.802,0.1
				c2.897,0.468,5.082,1.739,6.554,3.812c0.468,0.669,0.702,1.427,0.702,2.274c0,0.802-0.179,1.572-0.535,2.307
				c-0.847,1.828-3.236,5.267-5.651,6.119c-0.089,0.379-0.134,0.903-0.134,1.572c0,0.424,0.312,5.12-0.413,6.774
				c-0.14,0.32-0.545,0.431-0.864,0.289C30.379,73.484,29.72,73.109,29.661,72.604z M35.713,56.087c0-0.802-1.256-2.443-3.544-2.809
				c0.089,1.538,0.156,2.892,0.201,4.062c0.045,1.17,0.067,2.179,0.067,3.026c0,0.312,0,0.591,0,0.836
				c0,0.245-0.011,0.48-0.034,0.702c2.573-1.937,3.087-3.722,3.31-5.55V56.087z"/>
			<path fill="#FFFFFF" d="M37.819,72.002c0-0.869,0.245-1.906,0.736-3.109c0.669-1.627,1.068-3.234,1.087-3.402
				c0,0-0.616,0.25-0.905,0.026c-0.312-0.245,0.063-1.584,0.152-1.674c0.089-0.134,0.34-0.17,0.702-0.301
				c0.33-0.119,0.6-0.296,0.6-0.296c0.401-1.092,1.072-3.237,1.941-6.291c0.379-1.337,0.73-2.502,1.053-3.494
				c0.323-0.991,0.629-1.844,0.919-2.558c0.134-0.312,0.511-0.468,0.934-0.468c0.312,0,0.492,0.1,0.738,0.301
				c0.624,0.535,1.526,4.703,1.571,5.149c0.557,2.63,1.125,5.021,1.705,7.172c0.579,2.151,1.17,4.096,1.772,5.835
				c0.134,0.379,0.201,0.691,0.201,0.936c0,0.446-0.19,0.836-0.568,1.17c-0.163,0.143-0.961,0.691-1.535,0.374
				c-0.682-0.376-1.15-1.7-1.307-2.547c-0.29-1.694-0.658-3.109-1.103-4.246l-2.274,0.201c-0.869,0.112-1.995,0.412-1.995,0.412
				c-0.112,0.357-0.295,1.226-0.462,1.828c-0.167,0.602-0.351,1.349-0.552,2.24c-0.379,1.649-0.747,2.886-1.103,3.711
				c-0.658,0.869-2.307,0.129-2.307-0.669V72.002z M45.944,62.506c-0.045-0.446-0.1-0.897-0.167-1.354
				c-0.067-0.457-0.156-0.93-0.268-1.421c-0.112-0.446-0.217-0.891-0.318-1.337c-0.1-0.446-0.206-0.891-0.318-1.338
				c-0.669,1.872-1.249,3.723-1.739,5.55C43.492,62.54,44.428,62.506,45.944,62.506z"/>
			<path fill="#FFFFFF" d="M61.324,74.978c-0.936-0.201-1.862-0.585-2.775-1.154c-0.914-0.568-1.75-1.209-2.508-1.923
				c-0.758-0.714-1.404-1.443-1.939-2.19c-0.535-0.746-0.892-1.399-1.07-1.956c-0.357-1.092-0.58-2.168-0.669-3.227
				c-0.089-1.058-0.134-1.956-0.134-2.692c0-1.872,0.284-3.477,0.852-4.815c0.568-1.337,1.209-2.396,1.923-3.176
				c1.092-1.204,2.106-2.084,3.043-2.641c0.936-0.557,1.764-0.764,2.474-0.836c1.596-0.161,1.939,0.903,1.939,1.304
				c0,0.313-0.078,0.597-0.234,0.853c-0.156,0.257-0.435,0.429-0.836,0.518c-0.513,0.089-1.031,0.212-1.555,0.368
				c-0.524,0.156-1.142,0.546-1.856,1.17c-0.379,0.334-0.752,0.747-1.12,1.237c-0.368,0.491-0.697,1.07-0.986,1.739
				c-0.29,0.669-0.524,1.433-0.702,2.29c-0.179,0.858-0.267,1.811-0.267,2.859c0,1.917,0.624,3.901,1.872,5.952
				c0.379,0.468,0.736,0.886,1.07,1.254c0.335,0.368,0.624,0.674,0.869,0.919c0.245,0.245,0.49,0.485,0.736,0.719
				c0.245,0.234,0.624,0.485,1.137,0.752c0.178,0.089,0.412,0.184,0.702,0.284c0.289,0.1,0.523,0.184,0.702,0.251
				c0.356,0.201,0.535,0.479,0.535,0.836c0,0.356-0.117,0.68-0.351,0.97c-0.234,0.289-0.485,0.401-0.752,0.334H61.324z"/>
			<path fill="#FFFFFF" d="M62.972,61.024c0-0.712,1.304-0.365,1.349-0.544c0.022-0.089,0.035-0.27,0.08-0.783
				c0.045-0.512,0.07-1.696,0.137-2.699c-1.362,0.61-1.809-0.265-1.809-0.979c0.022-0.646,0.412-1.159,1.17-1.538
				c0,0,9.767-3.257,10.479-2.72c0.242,0.129,0.543,0.558,0.633,0.803c0.089,0.245,0.223,0.669,0.223,0.78
				c0,0.201-0.078,0.346-0.234,0.435c-0.424,0.178-0.936,0.362-1.538,0.552c-0.602,0.19-1.304,0.396-2.106,0.619
				c-0.802,0.223-1.505,0.43-2.106,0.619c-0.602,0.19-1.115,0.374-1.538,0.552c-0.089,0.268-0.173,0.725-0.251,1.371
				c-0.078,0.647-0.194,1.715-0.239,2.74c0.356,0.134,6.229-0.6,6.404-0.122c0.169,0.461,0.21,2.033-0.102,2.033
				c-0.468,0.089-5.624,0.476-6.248,0.698c-0.424,1.561-0.546,5.027-0.368,5.45c0.466,0.866,5.775,0.972,5.975,0.805
				c0.201-0.167,0.279-0.605,0.681-0.63c0.803-0.051,0.901,0.231,1.057,1.189c0,0.045,0.077,0.698,0.077,0.742
				c0,0.312-0.095,0.585-0.284,0.819c-0.19,0.234-0.494,0.385-1.419,0.385c-0.201,0-7.584-0.431-8.275-1.407
				c-1.053-1.487-0.699-6.907-0.654-7.286c0,0-0.408,0.04-0.753,0.019c-0.261-0.016-0.456-0.245-0.438-0.506L62.972,61.024z"/>
		</g>
		<path fill="#FFFFFF" d="M69.48,43.061c-0.123-0.162-0.19-0.361-0.19-0.565v-0.421c0-0.958,0.028-2.056,0.083-3.293
			c0.056-1.237,0.151-2.625,0.284-4.163c0.335-3.7,0.502-6.386,0.502-8.058c0-0.579-0.011-1.131-0.033-1.655
			c-0.017-0.399-0.041-0.795-0.07-1.188c-0.02-0.257,0.1-0.513,0.329-0.632c0.218-0.113,0.466-0.17,0.745-0.17
			c0.847,0,1.337,0.312,1.471,0.936c0,0.223,0.005,0.457,0.017,0.702c0.011,0.246,0.017,0.513,0.017,0.803
			c0,0.869-0.022,1.856-0.067,2.959c-0.045,1.103-0.112,2.357-0.201,3.762c-0.112,1.538-0.184,2.909-0.217,4.113
			c-0.033,1.204-0.05,2.252-0.05,3.143v0.936c0.579-0.223,1.393-0.691,2.441-1.404c0.557-0.379,1.031-0.696,1.421-0.953
			c0.39-0.256,1.279-0.692,1.548-0.778c0.895-0.285,1.377,0.271,1.578,0.627c0.134,0.267,0.201,0.491,0.201,0.669
			c0,0.223-0.067,0.413-0.201,0.568l-3.912,2.775c-0.758,0.535-1.466,1.003-2.123,1.404c-0.658,0.401-1.276,0.724-1.856,0.97
			c-0.134,0.067-0.268,0.1-0.401,0.1c-0.313,0-0.602-0.201-0.869-0.602L69.48,43.061z"/>
		<path fill="#FFFFFF" d="M54.736,36.282c-0.26,0.802-0.587,1.546-0.979,2.234c-0.392,0.689-0.827,1.291-1.303,1.806
			c-0.477,0.516-1.001,0.929-1.573,1.24c-0.573,0.31-1.169,0.489-1.79,0.535c-0.434,0.032-0.934-0.053-1.498-0.258
			c-0.564-0.204-1.105-0.532-1.623-0.986c-0.518-0.453-0.97-1.017-1.356-1.692c-0.387-0.675-0.61-1.48-0.67-2.414
			c-0.047-0.734-0.287-2.487,0.726-5.448c0.314-0.919,0.984-2.144,2.362-3.599c3.965-4.188,6.803,0.189,7.088,0.737
			C54.405,28.987,55.693,31.707,54.736,36.282z M51.092,28.921c-1.353-0.442-3.45,0.512-4.569,4.493
			c-0.092,0.327-0.757,5.961,1.856,6.265c2.251,0.262,3.238-2.409,3.507-2.951C53.287,33.911,52.973,29.536,51.092,28.921z"/>
		<path fill="#FFFFFF" d="M66.568,39.493c-0.351,0.727-0.889,1.291-1.4,1.806c-0.512,0.516-1.075,0.929-1.691,1.24
			c-0.615,0.31-1.257,0.489-1.924,0.535c-0.467,0.032-1.004-0.053-1.61-0.258c-0.606-0.204-1.188-0.532-1.744-0.986
			c-0.556-0.453-1.042-1.017-1.457-1.692c-0.415-0.675-0.655-1.48-0.72-2.414c-0.051-0.734,0.035-1.593,0.241-2.58
			c0.265-1.27,1.073-4.6,2.968-6.406c4.758-4.534,7.421,0.128,7.727,0.676C67.264,29.963,68.807,34.85,66.568,39.493z
			 M63.643,29.429c-1.451-0.451-3.767,1.021-4.968,5.001c-0.099,0.327-0.714,3.905,1.024,5.754c0.659,0.702,1.936,0.587,2.48,0.47
			C66.164,39.798,66.977,30.466,63.643,29.429z"/>
	</g>
</g>
</svg>
